<svg width="32" height="32" viewBox="0 0 32 32" fill="none" xmlns="http://www.w3.org/2000/svg">
<path d="M27.3437 24.1625L19.1812 16L27.3437 7.83752C28.225 6.95627 28.225 5.53752 27.3437 4.65627C26.4625 3.77502 25.0437 3.77502 24.1625 4.65627L16 12.8188L7.8375 4.65627C6.95625 3.77502 5.5375 3.77502 4.65625 4.65627C3.775 5.53752 3.775 6.95627 4.65625 7.83752L12.8187 16L4.65625 24.1625C3.775 25.0438 3.775 26.4625 4.65625 27.3438C5.5375 28.225 6.95625 28.225 7.8375 27.3438L16 19.1813L24.1625 27.3438C25.0437 28.225 26.4625 28.225 27.3437 27.3438C28.2187 26.4625 28.2187 25.0375 27.3437 24.1625Z" fill="white"/>
</svg>
