<svg xmlns="http://www.w3.org/2000/svg" viewBox="0 0 128 128"><radialGradient cx="19.111" cy="128.444" gradientUnits="userSpaceOnUse" id="A" r="163.552"><stop offset="0" stop-color="#ffb140"/><stop offset=".256" stop-color="#ff5445"/><stop offset=".599" stop-color="#fc2b82"/><stop offset="1" stop-color="#8e40b7"/></radialGradient><path d="M105.843 29.837a7.68 7.68 0 1 1-15.36 0 7.68 7.68 0 1 1 15.36 0zM64 85.333c-11.782 0-21.333-9.55-21.333-21.333S52.218 42.667 64 42.667 85.333 52.218 85.333 64 75.782 85.333 64 85.333zm0-54.198C45.85 31.135 31.135 45.85 31.135 64S45.85 96.865 64 96.865 96.865 82.15 96.865 64 82.15 31.135 64 31.135zm0-19.603l25.86.373c6.24.285 9.63 1.327 11.884 2.204 2.987 1.16 5.12 2.548 7.36 4.788s3.627 4.37 4.788 7.36c.876 2.255 1.92 5.644 2.204 11.884.308 6.75.373 8.773.373 25.862l-.373 25.86c-.285 6.24-1.327 9.63-2.204 11.884-1.16 2.987-2.548 5.12-4.788 7.36s-4.37 3.627-7.36 4.788c-2.255.876-5.644 1.92-11.884 2.204-6.748.308-8.772.373-25.86.373s-19.114-.065-25.862-.373c-6.24-.285-9.63-1.327-11.884-2.204-2.987-1.16-5.12-2.548-7.36-4.788s-3.627-4.37-4.788-7.36c-.876-2.255-1.92-5.644-2.204-11.884-.308-6.75-.373-8.773-.373-25.86l.373-25.862c.285-6.24 1.327-9.63 2.204-11.884 1.16-2.987 2.548-5.12 4.788-7.36s4.37-3.627 7.36-4.788c2.255-.876 5.644-1.92 11.884-2.204 6.75-.308 8.773-.373 25.862-.373zM64 0C46.62 0 44.44.074 37.613.385 30.8.696 26.148 1.778 22.078 3.36c-4.21 1.635-7.778 3.824-11.336 7.382S4.995 17.87 3.36 22.078C1.778 26.15.696 30.8.385 37.613.074 44.44 0 46.62 0 64l.385 26.387c.31 6.812 1.393 11.464 2.975 15.535 1.635 4.21 3.824 7.778 7.382 11.336s7.127 5.746 11.336 7.382c4.07 1.582 8.723 2.664 15.535 2.975 6.826.31 9.006.385 26.387.385s19.56-.074 26.387-.385c6.812-.31 11.464-1.393 15.535-2.975 4.21-1.636 7.778-3.824 11.336-7.382s5.746-7.127 7.382-11.336c1.582-4.07 2.664-8.723 2.975-15.535.31-6.826.385-9.006.385-26.387l-.385-26.387c-.31-6.812-1.393-11.464-2.975-15.535-1.636-4.21-3.824-7.778-7.382-11.336s-7.127-5.746-11.336-7.382C101.85 1.778 97.2.696 90.387.385 83.56.074 81.38 0 64 0z" fill="url(#A)" fill-rule="evenodd"/></svg>