<svg xmlns="http://www.w3.org/2000/svg" viewBox="0 0 128 128"><path d="M3.23 43.133h24.948v79.05H3.23v-79.05zm11.838-9.887h-.18C5.855 33.246 0 27.203 0 19.543c0-7.81 6.028-13.725 15.24-13.725 9.204 0 14.864 5.9 15.044 13.703 0 7.66-5.84 13.725-15.217 13.725zM128 122.182H99.7V81.275c0-10.707-4.425-18.017-14.156-18.017-7.443 0-11.582 4.933-13.51 9.686-.722 1.706-.6 4.083-.6 6.46v42.777H43.41v-79.05h28.026v12.406c1.656-5.424 10.61-13.166 24.903-13.166 17.73 0 31.66 11.37 31.66 35.855v43.955z" fill="#007ebb" fill-rule="evenodd"/></svg>