<svg xmlns="http://www.w3.org/2000/svg" viewBox="0 0 128 128" fill-rule="evenodd"><path d="M101.99 52.3L73.278 10.538l-8.994 6.08 28.714 41.75 8.993-6.08zm-10.763 7.56L47.332 34.177 41.8 43.47l43.898 25.674 5.53-9.295zm-6.425 12.345L35.59 59.077 32.76 69.5l49.217 13.12 2.825-10.424zM81.455 86.28L30.71 81.643l-1 10.75 50.747 4.632.998-10.745zm33.212-36.5L105.95 0 95.223 1.845l8.717 49.79 10.727-1.845zM80.23 110.913l-50.964.024-.004-10.793 50.962-.026.006 10.795z" fill="#ff810f"/><path fill="#bebcbc" d="M88.884 75.41v44.123H22.04V75.41h-8.707V128h84.214V75.41z"/></svg>