<svg xmlns="http://www.w3.org/2000/svg" viewBox="0 0 128 128"><path d="M128 23.294a51.28 51.28 0 0 1-15.079 4.237c5.424-3.328 9.587-8.606 11.548-14.892-5.08 3.082-10.69 5.324-16.687 6.526-4.778-5.23-11.608-8.498-19.166-8.498-14.493 0-26.25 12.057-26.25 26.927 0 2.11.225 4.16.676 6.133C41.217 42.6 21.87 31.892 8.9 15.582c-2.26 3.99-3.554 8.62-3.554 13.552 0 9.338 4.636 17.58 11.683 22.412-4.297-.13-8.355-1.356-11.9-3.36v.33c0 13.05 9.053 23.937 21.074 26.403-2.2.632-4.523.948-6.92.948a25.51 25.51 0 0 1-4.944-.478c3.343 10.694 13.035 18.483 24.53 18.69-8.986 7.227-20.315 11.533-32.614 11.533-2.12 0-4.215-.123-6.266-.37 11.623 7.627 25.432 12.088 40.255 12.088 48.31 0 74.717-41.026 74.717-76.612a89.39 89.39 0 0 0-.068-3.49c5.134-3.798 9.59-8.536 13.098-13.937" fill="#00aaec" fill-rule="evenodd"/></svg>