<?xml version="1.0" encoding="UTF-8"?>
<svg width="411px" height="411px" viewBox="0 0 411 411" version="1.1" xmlns="http://www.w3.org/2000/svg" xmlns:xlink="http://www.w3.org/1999/xlink">
    <!-- Generator: Sketch 55.1 (78136) - https://sketchapp.com -->
    <title>Sass Logo - Seal (Color)</title>
    <desc>Created with Sketch.</desc>
    <g id="Sass-Logo---Seal-(Color)" stroke="none" stroke-width="1" fill="none" fill-rule="evenodd">
        <path d="M205.436,0.129 C318.895,0.129 410.871,92.106 410.871,205.565 C410.871,319.024 318.895,411 205.436,411 C91.977,411 0,319.024 0,205.565 C0,92.106 91.977,0.129 205.436,0.129" id="Fill-1" fill="#BE5F8A"></path>
        <path d="M164.609,273.996 C167.598,285.052 167.27,295.362 164.183,304.699 C163.84,305.736 163.462,306.762 163.052,307.776 C162.642,308.788 162.198,309.789 161.722,310.777 C159.341,315.717 156.146,320.341 152.233,324.609 C140.297,337.631 123.62,342.555 116.469,338.406 C108.747,333.93 112.615,315.57 126.454,300.942 C141.342,285.203 162.763,275.084 162.763,275.084 L162.73,275.02 C163.347,274.688 163.974,274.346 164.609,273.996 Z M334.299,88.058 C324.996,51.572 264.498,39.578 207.24,59.919 C173.165,72.026 136.276,91.026 109.752,115.835 C78.215,145.333 73.186,171.007 75.259,181.735 C82.571,219.589 134.438,244.332 155.76,262.69 L155.76,262.801 C149.473,265.896 103.456,289.184 92.687,312.992 C81.324,338.109 94.496,356.133 103.216,358.559 C130.235,366.076 157.961,352.555 172.861,330.33 C187.24,308.882 186.043,281.186 179.794,267.409 C188.414,265.135 198.463,264.116 211.234,265.608 C247.271,269.817 254.342,292.319 252.99,301.734 C251.639,311.152 244.08,316.33 241.553,317.893 C239.025,319.457 238.254,319.998 238.467,321.16 C238.773,322.85 239.943,322.787 242.098,322.422 C245.064,321.922 261.021,314.762 261.703,297.379 C262.572,275.309 241.422,250.621 203.973,251.266 C188.55,251.532 178.852,252.999 171.847,255.606 C171.329,255.016 170.802,254.429 170.257,253.848 C147.105,229.147 104.306,211.674 106.121,178.467 C106.781,166.395 110.977,134.606 188.36,96.047 C251.75,64.46 302.496,73.152 311.266,92.416 C323.793,119.937 284.145,171.089 218.314,178.467 C193.233,181.279 180.027,171.558 176.742,167.938 C173.283,164.127 172.768,163.955 171.477,164.67 C169.373,165.835 170.706,169.2 171.477,171.206 C173.442,176.321 181.508,185.392 195.259,189.904 C207.355,193.874 236.803,196.055 272.416,182.28 C312.301,166.851 343.447,123.933 334.299,88.058 L334.299,88.058 Z" id="Fill-4" fill="#FFFFFE"></path>
    </g>
</svg>