<?xml version="1.0" encoding="UTF-8" standalone="no"?>
<!DOCTYPE svg PUBLIC "-//W3C//DTD SVG 1.1//EN" "http://www.w3.org/Graphics/SVG/1.1/DTD/svg11.dtd">
<svg width="100%" height="100%" viewBox="0 0 300 300" version="1.1" xmlns="http://www.w3.org/2000/svg" xmlns:xlink="http://www.w3.org/1999/xlink" xml:space="preserve" xmlns:serif="http://www.serif.com/" style="fill-rule:evenodd;clip-rule:evenodd;stroke-linejoin:round;">
    <g transform="matrix(1.3722,0,0,1.3569,24.8709,6.47123)">
        <g id="Page-1">
            <g id="dragula">
                <path id="Path" d="M45.09,158.663C42.438,199.336 37.242,193.163 37.293,202.533C37.343,211.903 45.653,211.553 45.653,211.553C45.653,211.553 53.968,211.813 53.918,202.443C53.854,190.61 48.002,196.947 45.091,158.663L45.09,158.663Z" style="fill:rgb(150,25,20);fill-rule:nonzero;stroke:rgb(82,16,15);stroke-width:4px;"/>
                <path id="Path1" serif:id="Path" d="M161.298,129.555C160.714,129.373 129.176,119.445 92.568,102.781L120.681,92.771C121.496,92.481 122.031,91.701 122.011,90.837C121.991,89.973 121.415,89.22 120.588,88.972C119.736,88.717 35.152,62.75 13.566,11.092C13.2,10.215 12.266,9.718 11.336,9.902C10.402,10.085 9.728,10.899 9.721,11.85C9.571,33.692 19.325,54.9 38.058,73.726C25.045,65.42 13.063,56.408 3.41,46.828C2.75,46.173 1.73,46.058 0.944,46.55C0.157,47.04 -0.19,48.006 0.104,48.885C15.959,96.069 75.758,116.615 78.296,117.467C78.379,117.495 78.464,117.517 78.55,117.534L160.323,133.429C160.451,133.453 160.579,133.465 160.706,133.465C161.606,133.465 162.416,132.855 162.644,131.953C162.902,130.923 162.312,129.87 161.298,129.553L161.298,129.555Z" style="fill:rgb(34,28,59);fill-rule:nonzero;"/>
                <path id="Path2" serif:id="Path" d="M20.208,33.882C41.114,63.294 88.69,88.366 88.69,88.366L83.02,99.906C83.02,99.906 28.464,66.843 20.207,33.883L20.208,33.882Z" style="fill:rgb(149,42,88);fill-rule:nonzero;"/>
                <path id="Shape" d="M176.817,96.7C169.673,82.777 156,73.51 136.173,69.153C81.2,57.076 66.583,46.878 38.43,0.955C37.957,0.185 37.03,-0.173 36.162,0.081C35.296,0.335 34.706,1.138 34.723,2.041C34.916,12.036 39.141,24.974 44.034,39.954C55.619,75.427 70.036,119.576 43.408,157.409C43.378,157.449 43.351,157.492 43.325,157.536C43.168,157.794 43.075,158.079 43.045,158.368L43.045,158.376C43.037,158.471 43.035,158.566 43.038,158.659L43.038,158.667C43.056,159.047 43.183,159.424 43.416,159.747C44.126,160.732 45.236,162.112 46.638,163.857C53.618,172.547 69.963,192.897 67.213,205.417C67.001,206.384 67.529,207.361 68.455,207.714C68.688,207.804 68.929,207.844 69.165,207.844C69.872,207.844 70.548,207.47 70.911,206.824C79.631,191.274 98.125,188.136 117.704,184.814C143.349,180.464 172.414,175.532 180.352,139.404C183.957,122.998 182.735,108.231 176.819,96.701L176.817,96.7ZM80.36,118.05C90.212,120.862 112.164,127.972 112.484,142.554C96.774,146.682 84.261,150.021 71.066,162.394C68.046,161.301 59.899,158.488 52.598,157.2C67.47,148.575 76.503,132.227 80.358,118.05L80.36,118.05Z" style="fill:rgb(34,28,59);fill-rule:nonzero;"/>
                <path id="Path3" serif:id="Path" d="M47.667,26.329C68.917,60.08 90.473,67.62 127.853,75.83C164.119,83.8 176.803,107.995 170.71,135.734C159.056,188.778 92.663,164.557 70.334,191.749C60.586,167.173 45.036,158.569 45.036,158.569C45.036,158.569 63.396,164.709 69.636,171.775C72.334,174.83 73.551,178.453 73.584,178.995C75.001,179.995 73.154,173.941 73.924,173.027C95.264,147.66 128.94,158.672 134.6,132.907C141.8,100.137 100.27,103.109 75,90.282C69.92,121.932 64.285,139.277 45.036,158.569C66.196,136.912 67.554,97.983 59.444,58.829C81.177,87.745 112.502,92.864 129.418,96.579C92.401,85.437 62.918,66.894 47.668,26.329L47.667,26.329Z" style="fill:rgb(149,42,88);fill-rule:nonzero;"/>
            </g>
        </g>
    </g>
</svg>
