<?xml version="1.0" encoding="UTF-8" standalone="no"?>
<!DOCTYPE svg PUBLIC "-//W3C//DTD SVG 1.1//EN" "http://www.w3.org/Graphics/SVG/1.1/DTD/svg11.dtd">
<svg width="100%" height="100%" viewBox="0 0 512 512" version="1.1" xmlns="http://www.w3.org/2000/svg" xmlns:xlink="http://www.w3.org/1999/xlink" xml:space="preserve" xmlns:serif="http://www.serif.com/" style="fill-rule:evenodd;clip-rule:evenodd;stroke-linejoin:round;stroke-miterlimit:2;">
    <path d="M512,0L0,0L0,512L512,512L512,0ZM154.648,419.17L142.818,419.17L142.818,80.999L357.351,80.999L357.351,92.83L369.182,92.83L369.182,145.776L216.464,145.776L216.464,219.178L339.94,219.178L339.94,231.008L351.771,231.008L351.771,283.954L216.464,283.954L216.464,431L154.648,431L154.648,419.17Z" style="fill:rgb(7,49,58);"/>
    <path d="M369.182,142.819L369.182,92.83L357.351,92.83L357.351,80.999L142.818,80.999L142.818,369.183L0.001,512L0.001,0L512.001,0L369.182,142.819ZM228.046,283.954L216.464,295.536L216.464,283.954L228.046,283.954ZM292.823,219.178L216.464,219.178L216.464,145.776L366.225,145.776L292.823,219.178Z" style="fill:rgb(21,109,129);fill-opacity:0.5;"/>
    <g>
        <path d="M339.94,231.008L351.771,231.008L351.771,283.954L216.464,283.954L216.464,431L154.648,431L154.648,419.17L204.633,419.17L204.633,272.123L339.94,272.123L339.94,231.008ZM357.351,92.83L369.182,92.83L369.182,145.776L216.464,145.776L216.464,219.178L204.633,219.178L204.633,133.945L357.351,133.945L357.351,92.83Z" style="fill-opacity:0.8;"/>
    </g>
</svg>
