<?xml version="1.0" encoding="UTF-8"?>
<svg width="281px" height="280px" viewBox="0 0 281 280" version="1.1" xmlns="http://www.w3.org/2000/svg" xmlns:xlink="http://www.w3.org/1999/xlink">
    <!-- Generator: Sketch 55.1 (78136) - https://sketchapp.com -->
    <title>Shape</title>
    <desc>Created with Sketch.</desc>
    <g id="Page-1" stroke="none" stroke-width="1" fill="none" fill-rule="evenodd">
        <path d="M184.2,0 L96.2,0 C43.4,0 0.2,43.2 0.2,96 L0.2,184 C0.2,236.8 43.4,280 96.2,280 L184.2,280 C237,280 280.2,236.8 280.2,184 L280.2,96 C280.2,43.2 237,0 184.2,0 Z M196.2,179.2 C196.2,191.7 177.9,202 165.4,202 L115,202 C102.4,202 84.2,191.8 84.2,179.2 L84.2,178 L196.2,178 L196.2,179.2 Z M196.2,152 L115,152 C102.5,152 84.2,141.7 84.2,129.2 L84.2,128 L165.4,128 C177.9,128 196.2,138.3 196.2,150.8 L196.2,152 L196.2,152 Z M196.2,102 L84.2,102 L84.2,100.8 C84.2,88.3 102.4,78 115,78 L165.4,78 C178,78 196.2,88.2 196.2,100.8 L196.2,102 L196.2,102 Z" id="Shape" fill="#16161D" fill-rule="nonzero"></path>
    </g>
</svg>